<?xml version="1.0" encoding="UTF-8"?>
<svg id="Capa_2" data-name="Capa 2" xmlns="http://www.w3.org/2000/svg" viewBox="0 0 105.2 105.2">
  <defs>
    <style>
      .cls-1 {
        fill: #3d71bc;
      }

      .cls-1, .cls-2 {
        stroke: #3d71bc;
        stroke-miterlimit: 10;
      }

      .cls-2 {
        fill: none;
        stroke-width: 5px;
      }
    </style>
  </defs>
  <g id="Capa_2-2" data-name="Capa 2">
    <g>
      <path class="cls-1" d="M79.84,26.2c19.9,19.71,12.03,55.08-14.68,63.72-30.11,9.75-57.61-17.43-48.92-47.76,7.76-27.08,43.49-35.88,63.59-15.96ZM19.5,67.49h65.95c6.15-11.19,3.25-26.45-4.59-36.25-14.36-17.95-40.98-17.87-55.68-.35-8.8,10.49-9.78,23.8-5.68,36.6ZM21.16,70.45c13.2,24.77,49.81,25.5,62.93.3-.96-1.57-1.59-.3-2.02-.3H21.16Z"/>
      <path class="cls-1" d="M23.29,92.2c-7.1,6.01-16.06-4.51-9.36-10.22,7.18-6.11,15.8,4.76,9.36,10.22ZM18.66,82.76c-6.72.11-5.27,9-.1,9,5.53,0,5.97-9.1.1-9Z"/>
      <path class="cls-1" d="M91.41,92.2c-8.36,7.09-17.07-7.45-7.56-11.3,7.67-3.1,12.84,6.82,7.56,11.3ZM86.24,82.69c-5.8.57-5.05,9.18.45,9.05,5.74-.13,5.77-9.66-.45-9.05Z"/>
      <path class="cls-1" d="M23.29,22.93c-7.1,6.01-16.06-4.51-9.36-10.22,7.18-6.11,15.8,4.76,9.36,10.22ZM18.66,13.48c-6.72.11-5.27,9-.1,9,5.53,0,5.97-9.1.1-9Z"/>
      <path class="cls-1" d="M91.41,22.92c-8.36,7.09-17.07-7.45-7.56-11.3,7.67-3.1,12.84,6.82,7.56,11.3ZM86.24,13.42c-5.8.57-5.05,9.18.45,9.05,5.74-.13,5.77-9.66-.45-9.05Z"/>
      <ellipse class="cls-1" cx="18.01" cy="87.44" rx="5.48" ry="4.91"/>
      <path class="cls-1" d="M28.49,39.97c-.23.29-.78.39-1.14.3-.17-.05-2.95-1.64-3.11-1.78-.89-.76-.12-2.17.88-1.9.18.05,2.93,1.61,3.12,1.77.46.38.63,1.13.25,1.61Z"/>
      <path class="cls-1" d="M80.68,36.59c.91-.18,1.52.86,1.05,1.64-.22.37-3.37,2.11-3.82,2.09-.81-.05-1.02-1.06-.66-1.68.1-.18,3.16-1.99,3.42-2.05Z"/>
      <path class="cls-1" d="M39.12,29.33c-.45.55-1.17.36-1.6-.11-.17-.18-1.72-2.79-1.77-2.97-.4-1.45,1.05-2.01,1.9-.89.28.37,1.49,2.48,1.59,2.86s.13.8-.12,1.11Z"/>
      <path class="cls-1" d="M68.16,29.32c-.88.85-1.91.13-1.64-1.14.05-.23,1.6-2.95,1.77-3.11.74-.69,1.89-.08,1.76.89-.04.32-1.64,3.12-1.89,3.37Z"/>
      <path class="cls-1" d="M52.5,20.49c.5-.15,1.23.09,1.33.62.09.47.09,3.4,0,3.87-.19,1-1.85,1.1-2.01-.28-.07-.59-.07-3.38.14-3.75.06-.11.41-.43.54-.47Z"/>
      <path class="cls-1" d="M20.29,52.83c.47-.1,3.52-.1,3.93.03.67.22.77,1.35.27,1.73-.4.3-3.77.33-4.31.16-.97-.3-.89-1.69.11-1.92Z"/>
      <path class="cls-1" d="M81.68,52.83c.5-.11,3.47-.1,3.93.03.87.26.86,1.76-.23,1.94-.54.09-3.34.08-3.81-.06-.85-.26-.83-1.71.11-1.92Z"/>
      <g id="hJZZZz.tif">
        <path class="cls-1" d="M46.62,46.65c1.26-.08,2.7-.07,3.94-.25.29-.04.91-.2,1.13-.38.05-.04.08-.06.09-.13.03-.59.05-1.18.17-1.75.04-.18.14-.69.28-.8.09-.07.21,0,.27-.08.03-.04.12-.42.18-.53.15-.3.22-.3.37,0,.05.1.16.51.18.53.08.09.26-.06.4.23.16.33.27,1.26.3,1.65.02.19-.03.76.11.87.22.16.84.34,1.11.38.8.12,1.78.13,2.61.18.69.04,1.39.05,2.08.1.46.03,1.1.04,1.54.12.76.14.45,1.13.29,1.65-.04.12-.1.43-.21.48l-7.57,1.26-.67,4.68c.12.07.26.08.4.1.61.1,1.26.1,1.87.18.1.01.52.06.58.09.15.08.13.45.12.61-.01.18-.08.73-.25.8-.91.02-1.78.3-2.69.37-1.03.08-2-.23-3.02-.35-.09-.01-.38,0-.43-.02-.15-.05-.21-.51-.23-.66s-.06-.65.07-.73l2.86-.38-.65-4.69-7.62-1.28c-.14-.44-.59-1.61-.18-1.98.12-.1.57-.15.74-.16.6-.06,1.23-.07,1.84-.1Z"/>
      </g>
      <rect class="cls-2" x="2.5" y="2.5" width="100.2" height="100.2" rx="10.31" ry="10.31"/>
    </g>
  </g>
</svg>