<?xml version="1.0" encoding="UTF-8"?>
<svg id="Capa_2" data-name="Capa 2" xmlns="http://www.w3.org/2000/svg" viewBox="0 0 81.6 70.7">
  <defs>
    <style>
      .cls-1 {
        fill: #3d71bc;
        stroke: #3d71bc;
        stroke-miterlimit: 10;
      }
    </style>
  </defs>
  <g id="Capa_2-2" data-name="Capa 2">
    <g>
      <path class="cls-1" d="M22.4,48.55c1.01-.07,3.75-3.3,4.22-3.3,2.9,2.11,5.85,4,9.41,4.81,18.12,4.13,32.2-15.4,22.3-31.16-5.1-8.13-15.11-11.71-24.29-8.68-.62.21-3.81,1.83-4.01,1.65-.08-.65-.37-1.34-.65-1.93s-1.55-2.37-1.59-2.54c-.15-.54.65-.9,1.07-1.13,7.3-4.08,17.36-3.51,24.58.41,12.86,6.99,17.72,23.37,10.4,36.22-.36.63-2.37,3.29-2.28,3.63l18.93,18.99c1.97,2.81-1.12,5.96-3.9,4.11l-19.27-18.99c-3.71,2.54-7.71,4.53-12.22,5.24-7.44,1.18-16.07-.76-21.67-6.01-.23-.22-1.21-1.07-1.03-1.34Z"/>
      <path class="cls-1" d="M16.66,8.34c3.15.67,10.88,4.26,8.09,8.46-2.57,3.86-5.18-.67-7.5-1.74-2.58-1.18-7.98-1.22-8.57,2.36-.55,3.32,7.13,4.82,9.33,5.73,5.22,2.17,9.66,7.37,7.43,13.27-.92,2.44-3.93,5.1-6.34,6.02-1.34.51-2.25-.18-2.47,1.86-.27,2.41,1.13,7.35-2.76,7.29-5.13-.08-2.19-6.98-3.63-8.53-.39-.42-4.35-1.68-5.29-2.13-2.68-1.28-6.4-3.73-3.27-6.84,2.36-2.34,5.19,1,7.32,1.96,1.58.72,4.13,1.07,5.84.9,2.4-.23,5.66-1.76,4.77-4.72-.83-2.77-8.2-4.41-10.69-5.58C2.12,23.48-.49,15.59,6.03,10.44c1.48-1.17,2.99-1.39,4.53-2.27.34-2.95-.86-8.45,3.86-7.58,3.35.62,1.88,5.39,2.24,7.75Z"/>
    </g>
  </g>
</svg>