<?xml version="1.0" encoding="UTF-8"?>
<svg id="Capa_2" data-name="Capa 2" xmlns="http://www.w3.org/2000/svg" viewBox="0 0 117.34 132.4">
  <defs>
    <style>
      .cls-1 {
        fill: #3d71bc;
      }
    </style>
  </defs>
  <g id="Capa_2-2" data-name="Capa 2">
    <g id="JzUpmq.tif">
      <g>
        <path class="cls-1" d="M54.34,6.09c.59.37,6.86-.2,8.41.11,2.25.46,2.99,2.96,3.82,3.11h19.07c1.9.22,3.18,1.78,3.69,3.52.45,18.38.09,36.84.18,55.25,1.14,2.03,1.66,4.26,2.04,6.55,2.05.95,4.31,1.46,6.21,2.72,2.58-1.1,4.88-4.23,7.8-2.22,1.05.72,4.77,4.6,4.92,5.76.26,1.93-2.25,4.46-2.96,6.22,1.1.89,2.06,5.63,2.57,6.14.54.55,5.04.55,6.3,2.01,1.26,1.46,1.21,7.51.24,9.12-1.31,2.16-5.49,1.55-6.53,2.56-.58.57-1.46,5.03-2.54,5.98.94,2.53,4.12,4.93,2.32,7.8-.52.83-4.63,4.75-5.49,4.91-2.69.5-5.4-2.89-6.58-2.82-1.01.06-4.4,2.55-5.97,2.4-1.13,1.85-.82,6.44-3.38,7.01-1.03.23-6.94.19-7.81-.16-2.27-.92-1.7-5.65-2.81-6.72-.76-.74-4.83-1.32-5.83-2.53-3.85,1.78-6.43,5.01-9.92.38l-58.19-.14c-1.99-.24-3.26-1.91-3.76-3.74L0,14.07c.15-2.18,1.44-4.22,3.64-4.73l19.33-.02c.85-.16,1.08-1.45,1.73-2.03,2.33-2.09,7.39-.8,10.35-1.14,3.43-7.16,13.25-8.37,18.25-2.04.41.52.95,1.92,1.05,1.98ZM62.89,9.67c-.94-.94-7.88.1-9.76-.49-1.24-.39-1.56-2.2-2.3-3.19-3.08-4.11-9.45-3.85-12.37.34-.68.97-.85,2.48-2.05,2.85-2,.62-8.36-.43-9.55.27-.4.24-.53,1-.58,1.44-.13,1.17-.17,5.26.07,6.3.21.9.91,1.34,1.81,1.37l33.73-.07c.81-.19,1.22-.74,1.34-1.54.16-.99.16-6.78-.34-7.28ZM23.11,12.2H4.49c-.65,0-1.51,1.45-1.31,2.15v103.68c-.06,1.4.77,2.23,2.17,2.17h53.87c-.05-1.17-.12-2.2.58-3.19H7.37c-.08,0-.79-.45-.87-.58V15.96c.08-.13.78-.58.87-.58h15.74v-3.18ZM86.35,67.64V13.22c0-.12-1.15-1.01-1.3-1.01h-18.62v3.18h15.74c.3,0,1.01.71,1.01,1.01v13.57c0,.94-2.89.94-2.89,0v-11.4h-14.44c-.05,0-.09.64-.32.96-.7.98-1.74,1.79-2.99,1.93-11.3-.83-24.14,1.09-35.25,0-1.46-.14-2.42-.75-3.27-1.94-.23-.32-.27-.96-.32-.96h-14.44v95.28h52.55c.06,0,.26-.94.17-1.16-1.14-.98-1.76-4.93-2.48-5.62-1.21-1.16-5.8-.55-6.71-2.82-.36-.89-.39-7.05-.09-8.02.78-2.56,6.4-2.07,7.03-3.36.18-.37.2-1.08.41-1.61.28-.69,1.89-3.93,1.9-4.16.07-1.33-3.5-3.83-2.7-6.74.41-1.49,4.88-5.79,6.49-5.93,2.03-.18,4.87,2.88,5.93,2.95.68.04,4.68-2.65,6.02-2.47.58-.36,1.07-4.27,1.49-5.22.24-.54,1.01-1.22,1.01-1.3v-25.99c0-.94,2.89-.94,2.89,0v25.26h3.18ZM87.47,70.85l-5.44-.02c-.36,1.33-.84,5.45-1.61,6.33-.48.55-3.49,1.2-4.47,1.6-1.79.73-3.18,2.3-5.13,1.65-.94-.31-4.43-3.07-4.99-2.82-.52.82-3.24,2.84-3.42,3.53-.26,1,3.11,4.58,3.12,6,0,.66-1.47,2.71-1.85,3.61-.56,1.32-1.19,4.73-2.29,5.22-.83.37-5.87,1.25-5.96,1.59l.15,5.03c1.31.93,5.71,1.04,6.53,2.14.45.6.87,2.94,1.29,3.91.44,1.02,1.99,3.47,2.11,4.26.19,1.28-2.65,4.27-3.02,5.56-.12.41-.06.42.16.73.23.34,3.15,3.22,3.39,3.27,1.44-.17,4.63-3.11,5.73-3.11.53,0,3.6,1.76,4.48,2.14,1.05.45,2.96.73,3.74,1.17,1.32.75,1.3,4.99,2.08,6.29.57.96,4.21.31,5.4.44.35-.23.97-5.71,1.84-6.53.3-.28,3.93-1.31,4.83-1.67,1.05-.42,2.35-1.43,3.25-1.68,1.49-.42,4.25,2.4,5.7,2.88,1.21.4,3.31-2.71,4.26-3.49-.5-1.6-3.11-4.21-3.11-5.78,0-.82,1.99-4.44,2.46-5.64.46-1.18.32-2.73,1.6-3.31.83-.38,5.71-1.16,5.8-1.47l-.05-5.27c-.31-.48-5.15-.85-6.18-1.76-.63-.56-1.77-4.54-2.3-5.78-.53-1.23-1.65-1.94-1.23-3.54.24-.92,3.23-4.58,2.98-5.13l-3.76-3.7c-1.31.61-4.25,3.07-5.49,3.15s-2.01-.88-3.04-1.32c-1.6-.69-5.45-1.51-6.08-2.87-.39-.85-1.17-5.42-1.46-5.61Z"/>
        <path class="cls-1" d="M49.24,25.49c1,.29,3.34,7.14,4.18,7.65.38.23,5.54.3,7.06.73,2.75.78,7,4.21,6.79,7.31-.38,5.56-10.47,2.59-14.09,3.4-1.03,1.59-2.6,7.51-3.98,8.29-.81.46-6.6.49-7.75.3-3.32-.54-.47-6.41-.74-8.64h-12.56c-.23,0-.87-.98-1.03-1.28-1.68-3.42-2.36-8.88-3.98-12.51-.22-.61.29-1.41.82-1.65.67-.3,8.07-.28,8.97-.03,1.08.3,1.54,3.38,2.43,4.2h5.34c.25-1.15-1.9-7.8-.14-7.8h8.66ZM64.12,41.37c-.78-3.04-3.79-4.63-6.79-4.9-1.33-.12-4.97.32-5.79-.27-1.17-.85-3.1-7.38-4.36-7.76-1.02-.31-2.72.1-3.84-.06-.5.5,2.05,8.09.15,8.09h-9.82c-.49,0-2.15-3.6-2.17-4.33h-4.62l2.93,9.2c.57.37,10.66-.18,12.53.03,1.14.13,1.85.62,1.85,1.84,0,1.98-.93,4.77-1.13,6.82h4.62c.96-2.1,1.84-5.64,3.06-7.48.21-.31,1.16-1.18,1.42-1.18h11.98Z"/>
        <path class="cls-1" d="M35.45,58.46l35.17-.07c2.33.05,2.6,2.9.3,3.2h-35.25c-2.17.01-2.17-2.7-.22-3.13Z"/>
        <path class="cls-1" d="M18.12,57.02c.9-.26,8.57-.23,9.77-.08,1.12.15,1.46.82,1.58,1.88.16,1.35.19,8.4-.13,9.41-.27.83-.94,1.05-1.74,1.14-1.41.17-8.3.2-9.4-.14-.76-.23-1.05-.69-1.16-1.44-.23-1.71-.23-7.55,0-9.27.08-.63.43-1.32,1.09-1.51ZM26.29,60.13h-6.06v6.06h6.06v-6.06Z"/>
        <path class="cls-1" d="M18.12,75.5c.9-.26,8.57-.23,9.77-.08,1.12.15,1.46.82,1.58,1.88.16,1.35.19,8.4-.13,9.41-.27.83-.94,1.05-1.74,1.14-1.41.17-8.3.2-9.4-.14-.76-.23-1.05-.69-1.16-1.44-.23-1.71-.23-7.55,0-9.27.08-.63.43-1.32,1.09-1.51ZM26.29,78.61h-6.06v6.06h6.06v-6.06Z"/>
        <path class="cls-1" d="M18.12,93.97c.9-.26,8.57-.23,9.77-.08,1.12.15,1.46.82,1.58,1.88.16,1.35.19,8.4-.13,9.41-.27.83-.94,1.05-1.74,1.14-1.41.17-8.3.2-9.4-.14-.76-.23-1.05-.69-1.16-1.44-.23-1.71-.23-7.55,0-9.27.08-.63.43-1.32,1.09-1.51ZM26.29,97.09h-6.06v6.06h6.06v-6.06Z"/>
        <path class="cls-1" d="M62.24,64.75c1.45.24,1.15,2.89,0,2.89h-27.43c-.94,0-.94-2.89,0-2.89h27.43Z"/>
        <path class="cls-1" d="M35.45,76.94c6.07.41,13.36-.76,19.29-.07,2.41.28,2.48,2.91.3,3.2-6.13-.54-13.37.68-19.37,0-2.39-.27-2.01-2.73-.22-3.12Z"/>
        <path class="cls-1" d="M55.89,83.23c1.45.24,1.15,2.89,0,2.89h-21.08c-.94,0-.94-2.89,0-2.89h21.08Z"/>
        <path class="cls-1" d="M35.45,95.42c1.45-.32,10.75-.3,12.34-.05,2.07.34,2.21,2.51.3,3.15-3.9-.39-8.93.56-12.68-.01-2.04-.31-1.7-2.71.04-3.09Z"/>
        <path class="cls-1" d="M34.81,101.71h13.86c.85,0,.84,2.89,0,2.89h-13.86c-.79,0-1.12-2.5,0-2.89Z"/>
        <path class="cls-1" d="M80.29,34c.35-1.24,2.89-.57,2.89,0v4.33c0,.85-2.89.84-2.89,0,0-1-.2-3.61,0-4.33Z"/>
        <path class="cls-1" d="M83.69,81.59c14.17-.81,24.02,14.13,17.62,26.86-6.58,13.09-25.48,13.46-32.63.68-6.63-11.85,1.49-26.76,15.01-27.53ZM89.53,114.7c9.31-3.07,13.52-13.66,8.61-22.32-5.72-10.09-20.48-10.28-26.45-.29-5.2,8.7-.99,19.67,8.61,22.61v-4.19c0-.59-6.01-2.47-6.22-3.88.09-3.83-.57-8.55-.14-12.29.09-.82.32-1.41,1.08-1.81.49-.26,6.11-1.71,6.64-1.71s1.32.46,1.48.99c.44,1.46-1.24,12.03,2.48,9.59,1.46-.96.48-7.14.74-9.08.14-1.01.71-1.51,1.75-1.45s7,1.52,7.31,2.25l.13,13.59c-.33,1.11-4.8,2.87-6,3.38v4.62ZM80.29,94.49l-3.19.75v10.02c.9.79,6.08,2.56,6.08,3.51v6.5c1.14.22,2.04.47,3.18,0v-6.5c0-.86,5.99-3.15,6.08-3.51v-10.02s-2.9-.75-2.9-.75v6.21c0,.42-1.04,2.2-1.43,2.61-1.72,1.83-4.95,1.82-6.65-.01-.26-.29-1.16-1.76-1.16-2.02v-6.78Z"/>
      </g>
    </g>
  </g>
</svg>