<?xml version="1.0" encoding="UTF-8"?>
<svg id="Capa_2" data-name="Capa 2" xmlns="http://www.w3.org/2000/svg" viewBox="0 0 120.8 105.88">
  <defs>
    <style>
      .cls-1 {
        fill: #3d71bc;
      }
    </style>
  </defs>
  <g id="Capa_2-2" data-name="Capa 2">
    <g id="_5H7po8.tif" data-name="5H7po8.tif">
      <path class="cls-1" d="M65.09,2.73c.46-.62,2.71-1.32,3.5-.83l11.9,11.47c1.82.54,2.59-2.23,4.19-2.58,2.72-.6,4.31,2.5,2.91,4.72-1.63,2.6-3.48,1.4-.44,4.96,1.87,2.19,9.75,8.42,10.14,10.54.14.77-.41,2.26-.99,2.78-2.14,1.91-5.02-1.26-6.6-2.7-2.3-2.08-5.34-6.45-7.64-7.93-1.35-.87-2.66-.39-2.19,1.26s1.91,2.85,2.17,5.04c.92,7.57-5.08,10.56-9.2,15.48,2.83,4.65,7.34,8.09,11.04,12.05l.39.09c.49-.3.96-.64,1.41-1,1.26-1.03,6.67-6.58,6.87-7.81.16-1.02-.08-2.17.05-3.24.94-7.81,12.05-14.48,18.94-10.32,4.42,2.67-3.69,7.12-4.45,8.95-.18.43.4,2.52.76,2.83.56.48,2.29.62,2.98.3,2.07-.95,6.28-10.35,8.95-3.85,4.03,9.79-4.42,19.14-14.21,19.56l-25.9,27.4c.42,9.8-9.45,19.03-19.15,14.99-5.62-2.34,2.91-6.9,3.74-8.84.95-2.24-1.21-4.62-3.13-3.74-2.31,1.06-5.64,9.18-8.83,4.93-1.8-2.39-1.57-6.98-.78-9.72,1.42-4.95,5.2-8.12,9.88-9.87-2.92-2.88-5.7-6.51-8.82-9.14-.71-.6-2.07-1.85-2.98-1.79-1.32.09-5.07,4.05-6.32,5.08-1.65,1.35-3.67,2.61-5.24,4.05-.82.75-2.49,1.99-1.94,3.14.46.98,2.99,3.27,3.89,4.21,1.65,1.71,3.34,2.78,3.72,5.56,1.14,8.25-7.47,13.15-14.19,7.9-1.86-1.45-5.09-6.23-6.82-6.95-1.91-.79-2.54.7-4.29.94-1.94.27-4.39.23-6.08-.75-3.27-1.89-4.67-5.11-4.09-8.82.42-2.65,2.26-2.99.32-5.38C5.63,72.1,0,68.83,0,63.58c0-3.46,2.44-6.7,5.63-7.87,3.93-1.44,6.51-.21,9.52,2.32,1.36,1.14,4.42,5.5,5.92,5.06l11.23-13.36c.16-.5.13-1.03-.22-1.44-2.8-2.48-5.19-5.41-7.83-8.04-3.88-3.85-8.56-7.43-11.94-11.72-1.87-2.37-2.51-3.32-2.08-6.55.37-2.81,9.98-18.87,12.25-20.69,1.69-1.36,3.41-1.8,5.38-.59,2.51,1.55,7.01,6.63,9.3,8.96,4.46,4.54,9.13,10.53,13.91,14.54.75.63,2.05,1.82,3.01,1.81,1.5-.02,4.14-4.27,5.39-5.41,2.38-2.17,6.82-4.35,10.1-3.83,1.42.23,6.72,3.81,7.09,1.54.13-.81-10.04-10.63-11.49-11.81-.58-.81-.66-3-.08-3.78ZM25.39,7.18c-1.54.48-8.27,13.71-9.67,15.82l.02.89,51.66,51.38c3.33-3.45,6.79-6.82,10.04-10.34.45-.49,2.91-3.1,3.01-3.3.38-.73-2.22-2.53-2.56-3.45L26.84,7.42c-.41-.35-.96-.39-1.46-.24ZM67.32,22.48c-1.14.19-2.91,1.41-3.82,2.17-.98.81-3.97,3.97-4.63,4.97-.24.37-.4.73-.34,1.17.15,1.15,3.91,4.85,4.97,5.85.99.92,4.04,3.87,5.23,3.75.59-.06,5.66-4.91,6.27-5.72,3.29-4.36.45-7.28-2.98-10.15-1.49-1.25-2.59-2.38-4.71-2.03ZM105.43,38.58c-5.88.43-9.12,6.22-8.45,11.76-8.79,10.61-19.07,20.1-28.22,30.47-1.86,1.8-2.85.96-5.07,1.22-4.14.48-7.95,4.8-7.97,8.95,1.21-1.04,2.65-3.4,4.33-3.61,1.38-.18,5.88.88,7.04,1.68,1.32.91,2.63,5.9,2.39,7.45s-2.77,2.94-3.58,4.36c5.63-.28,9.74-5.99,8.47-11.48,7.79-8.67,15.58-17.57,23.72-25.95,1.08-1.11,5.64-5.93,6.66-6.22.9-.26,2.18.03,3.2-.1,4.29-.54,8.09-4.53,7.97-8.95-1.38.69-2.92,3.67-4.36,3.9-1.1.18-6.76-1.17-7.46-2.11-.86-1.15-2.15-5.91-1.94-7.31.24-1.57,2.5-2.7,3.28-4.06ZM44.55,63.34c.34-.42.44-1.01.39-1.53-.08-.74-3.14-4.09-3.88-4.83-1.05-1.04-3.32-3.67-4.79-2.98-.84.39-4.24,4.41-5.09,5.39-2.77,3.24-5.15,6.83-7.8,10.17-1.83,2.31-9.01,9.86-9.51,12.05-.76,3.31,1.95,4.24,4.54,3.04,8.62-7.22,17.7-13.88,26.15-21.3ZM14.59,65.33c-.72-.78-3.47-3.47-4.24-4-2.62-1.82-5.88,1.23-4.18,3.88,1.56,1.02,5.62,6.59,6.94,6.86.49.1.74.08,1.15-.23.3-.23,2.45-3.2,2.48-3.52.02-.27-1.81-2.6-2.16-2.99ZM30.19,82.66c-.88.18-3.15,1.95-3.23,2.79-.06.59,1.31,2.15,1.8,2.69.68.74,4.31,4.25,4.94,4.64,2.45,1.5,4.78-.35,4.33-3.13-.29-1.8-4.81-4.86-5.81-6.77-.58-.43-1.36-.36-2.04-.21Z"/>
    </g>
  </g>
</svg>