<?xml version="1.0" encoding="UTF-8"?>
<svg id="Capa_2" data-name="Capa 2" xmlns="http://www.w3.org/2000/svg" viewBox="0 0 109.06 109.25">
  <defs>
    <style>
      .cls-1 {
        fill: #3d71bc;
        stroke: #3d71bc;
        stroke-miterlimit: 10;
      }
    </style>
  </defs>
  <g id="Capa_2-2" data-name="Capa 2">
    <g id="L83La4.tif">
      <g>
        <path class="cls-1" d="M51.19.6c28.03-1.66,51.92,16.74,56.57,44.5,7.53,44.9-39.7,78.94-79.62,56.6C-18.41,75.67-3.1,3.82,51.19.6ZM54.43,4.58C23.46,4.66.34,32.53,5.65,63.04c9.34,53.67,86.37,54.9,97.45,1.64,6.47-31.09-16.83-60.19-48.67-60.11Z"/>
        <path class="cls-1" d="M50.2,10.8c35.37-2.78,60.36,34.6,42.09,65.76-17.75,30.26-63.66,28.25-77.59-4.15C3.06,45.33,20.31,13.15,50.2,10.8ZM63.42,15.96c-2.97-.89-15.24-1.72-17.12.14-.84.83-2.84,6.17-3.28,7.57-2.03,6.42-2.87,13.55-1.96,20.23l1.91-4.82c2.74-6.2,7.16-12.19,12.22-16.72,2.6-2.32,5.64-4.08,8.22-6.4ZM41.06,17.61c-6.31,1.88-12.38,6.24-16.41,11.32,2.06,10.4,7.33,20.12,15.26,27.15l-2.76-10.72c-1.14-9.51.22-18.93,3.91-27.74ZM85.45,30.1c-2.42-3.26-5.54-6.09-8.91-8.35-1.6-1.07-6.5-4.19-8.2-3.68-10.41,5.7-19.33,14.71-23,26.17,10.47-10.77,25.22-15.29,40.11-14.14ZM21.66,33.39c-.5-.5-1.31,1.34-1.48,1.64-1.64,2.87-5.81,13.24-4.59,16.11.31.74,5.16,4.33,6.17,5.01,6.57,4.46,14.32,7.51,22.27,8.14-11.07-7.17-19.17-18-22.36-30.9ZM93.66,51.47c-.26-5.93-2.12-12.17-5.47-17.05-9.6-1.05-19.78-.2-28.39,4.39,9.38.26,18.38,2.61,26.4,7.46,2.6,1.57,4.88,3.61,7.46,5.2ZM87.75,75.8c1.81-3.2,3.39-6.31,4.44-9.86.58-1.96,2.13-7.39,1.17-9.06-.57-1-5.14-4.3-6.36-5.15-7.21-5-15.68-8.42-24.57-8.47l5.23,3.15c8.03,5.53,13.95,13.51,17.62,22.5l2.47,6.9ZM53.15,45.64c-11.06,1.45-9.58,18.87,2.51,17.63,11.42-1.17,9.94-19.26-2.51-17.63ZM68.35,91.25c4.62-1.82,9.13-4.37,12.82-7.72,2.64-2.4,3.34-2.5,2.53-6.16-1.86-8.42-6.74-16.97-12.89-22.95l2.13,10.36c.66,9.28-1.08,17.95-4.6,26.46ZM53.88,67.91c-10.11,1.45-20.37-.48-29.27-5.42l-9.53-6.09c.69,6.54,2.14,13.32,6.13,18.69,11.17,1.29,23.53-.28,32.66-7.18ZM45.66,92.9c3.44.46,6.88,1.15,10.37,1,1.29-.05,5.07-.41,6.17-.74s3.53-6.49,4-7.84c2.83-8.08,3.7-16.9,1.82-25.3l-1.22,4.85c-3.39,11.74-11.25,21.13-21.13,28.02ZM24.29,79.42c3.87,5.34,10.01,9.5,16.22,11.75,9.09-5.49,17.3-13.41,20.93-23.59-10.16,8.37-23.94,13.16-37.15,11.84Z"/>
        <path class="cls-1" d="M53.8,49.9c6.3-.91,7.15,8.56,1.19,9.12s-6.79-8.31-1.19-9.12Z"/>
      </g>
    </g>
  </g>
</svg>