<?xml version="1.0" encoding="UTF-8"?>
<svg id="Capa_2" data-name="Capa 2" xmlns="http://www.w3.org/2000/svg" viewBox="0 0 163 109.5">
  <defs>
    <style>
      .cls-1 {
        fill: #3d71bc;
      }
    </style>
  </defs>
  <g id="Capa_2-2" data-name="Capa 2">
    <g id="wRAtX7.tif">
      <g>
        <path class="cls-1" d="M135.03,66.57c-8.52,36.94-50.43,54.77-83,34.35-12.22-7.66-20.79-20.34-24.08-34.35-7.98-1.27-19.78-4.59-24.6-11.53-3.24-4.67-5.98-12.79,1.09-15.41,5.78-2.14,17.2,1.08,23.72,1.74,3.31.34,6.68.57,10.01.63,3.3-12.76,13.16-23.53,25.18-28.79,24.89-10.9,54.27,2.72,61.46,28.79l4.76-.31C123,16.04,96.92.43,70.97,5.85c-12.89,2.7-25.06,11.33-31.97,22.48-.83,1.34-2.72,5.64-3.52,6.35-1.71,1.51-4.21.1-3.99-2.05.15-1.5,2.87-5.88,3.81-7.36C50.33,1.66,80.89-6.75,106.07,5.8c14.23,7.09,24.42,20.15,28.57,35.44.69.54,15.05-2.3,17.37-2.41,11.66-.6,13.67,7.29,7.74,16.02-4.85,7.15-16.6,10.42-24.73,11.73ZM120.01,42.64c-3.85-13.6-16.06-24.67-29.92-27.55-20.57-4.28-40.93,7.45-47.14,27.39l8.29.67c6.35-16.14,24.03-24.66,40.67-19.06,9.01,3.03,16.35,10.25,19.8,19.06l8.29-.51ZM106.64,43.6c-6.71-15.38-25.4-21.07-39.78-12.23-4.63,2.85-8.28,7.13-10.54,12.07l13.21,1.11c6.96-6.98,16.93-6.98,23.89,0l13.21-.95ZM5.15,44.63c-1.59,1.69,1.99,7.93,3.41,9.32,10.01,9.85,37.68,10.31,50.7,8.01,1.11-.2,7.37-1.36,7.56-2.01.09-.31-.89-4.13-.9-5.09-.01-1.52.93-3.98.91-5.09,0-.39-.14-.6-.52-.72-14.7-1.24-29.53-1.79-44.17-3.6-3.44-.43-14.68-3.29-17-.83ZM157.82,44.63c-2.32-2.47-13.57.4-17,.83-2.95.37-5.93.53-8.87,1l-35.29,2.6c-.38.12-.51.33-.52.72-.02,1.11.92,3.57.91,5.09,0,.96-.99,4.79-.9,5.09.18.61,5.02,1.5,5.97,1.69,13.39,2.65,41.94,2.5,52.29-7.69,1.42-1.4,4.99-7.64,3.41-9.32ZM81.38,44.04c-14.09.16-13.8,21.57.21,21.41s13.8-21.56-.21-21.41ZM106,67.16c-2.03-.38-4.09-.61-6.11-1.06-1.25-.28-5.32-1.61-6.13-1.5-.47.07-3.75,3.23-5.06,3.89-5.51,2.78-11.82,2.14-16.75-1.52-.77-.58-1.94-2.26-2.75-2.37l-12.25,2.72c7.37,14.41,25.31,19.3,39.14,10.8,4.24-2.61,7.79-6.42,9.9-10.96ZM38.15,67.83l-5.06-.35c6.84,25.01,31.19,40.89,57,36.46,19.23-3.3,34.69-17.72,39.79-36.46-6.17.72-12.37.79-18.58.37-1.7,2.65-3.09,5.49-5.14,7.91-8.22,9.7-21.7,13.58-33.91,10.03-9.06-2.64-16.41-9.35-20.38-17.83-2.87-.5-5.71.49-8.6.17,10.3,29.39,48.55,36.72,69.09,12.89,1.16-1.34,4.01-6.12,4.79-6.67,1.92-1.35,4.17.31,3.81,2.52-.25,1.51-5.36,7.89-6.68,9.27-23.92,25.04-66.46,14.65-76.14-18.29Z"/>
        <path class="cls-1" d="M80.76,30.93c3.33-.76,4.22,3.18,1.75,4.31-3.17,1.45-4.93-3.58-1.75-4.31Z"/>
        <path class="cls-1" d="M66.09,37.01c3.12-.16,3.14,4.75.22,4.91-3.12.16-3.14-4.75-.22-4.91Z"/>
        <path class="cls-1" d="M96.04,37.3c3.49-.79,4.12,3.48,1.7,4.24-3.71,1.18-4.52-3.6-1.7-4.24Z"/>
        <path class="cls-1" d="M96.04,67.87c3.49-.79,4.12,3.48,1.7,4.24-3.71,1.18-4.52-3.6-1.7-4.24Z"/>
        <path class="cls-1" d="M81.08,73.9c3.54-.56,3.8,5.95-.64,4.65-1.91-.56-1.59-4.3.64-4.65Z"/>
        <path class="cls-1" d="M66.04,67.63c3.59-.12,3.31,5.78-.88,4.55-1.93-.57-1.57-4.47.88-4.55Z"/>
      </g>
    </g>
  </g>
</svg>