<?xml version="1.0" encoding="UTF-8"?>
<svg id="Capa_2" data-name="Capa 2" xmlns="http://www.w3.org/2000/svg" viewBox="0 0 33 33.06">
  <defs>
    <style>
      .cls-1 {
        fill: gray;
      }
    </style>
  </defs>
  <g id="Capa_2-2" data-name="Capa 2">
    <g id="vadFCM.tif">
      <path class="cls-1" d="M21.06,32.4v-12.18h3.55l.52-4.13h-4.06v-3.32c0-.19.29-.76.45-.91.15-.13.75-.42.94-.42h2.8v-3.74l-1.9-.13c-2.18-.13-4.4.16-5.7,2.11-.34.51-.85,1.78-.85,2.37v3.93s-.09.1-.1.1h-3.45v4.13h3.55v12.73c0,.14-.96.11-1.13.1C.99,32.48-5.53,13.83,5.62,4.1c11.46-10,29.2-.41,27.23,14.66-.84,6.41-5.59,11.89-11.79,13.64Z"/>
    </g>
  </g>
</svg>