<?xml version="1.0" encoding="UTF-8"?>
<svg id="Capa_2" data-name="Capa 2" xmlns="http://www.w3.org/2000/svg" viewBox="0 0 503.93 89.48">
  <defs>
    <style>
      .cls-1 {
        fill: #242c58;
      }
    </style>
  </defs>
  <g id="Capa_1-2" data-name="Capa 1">
    <g>
      <path class="cls-1" d="M257.16,87.85L275.41,1.96c13.82.27,28.9-1.21,42.64-.27,8.62.59,17.37,3.56,21.34,11.79,7.79,16.19-1.58,35.77-19.36,39.01,6.65,11.22,12.17,23.07,16.57,35.36h-24c-2.39-7.44-8.31-27.7-14.67-31.85-2.18-1.43-9.1-2.85-11.07-1.54-1.43.95-6.84,29.43-7.98,33.39h-21.72ZM290.3,37.08l18.01-.57c5.69-.3,14.2-6.75,11.29-12.99-2.43-5.2-21.21-2.17-26.43-2.98l-2.86,16.54Z"/>
      <path class="cls-1" d="M422.31,1.71l-4.06,18.77-43.94.06-2.29,13.11h41.72l-4.06,18.77-41.3.13c-.52.11-.66.44-.83.89-1.61,4.37-1.97,10.98-3.54,15.58h46.86l-3.43,18.82h-69.15L356.02,1.71h66.29Z"/>
      <path class="cls-1" d="M264.59,1.71l-4.08,18.75-42.41.05c-.9.21-3.05,11.36-3.23,13.15h41.72l-4.06,18.77-41.58.13-4.08,16.47h46.86l-4,18.82h-68.58L198.87,1.71h65.72Z"/>
      <path class="cls-1" d="M467.36.14c53.48-.9,45.24,81.61-4.83,88.78-61.16,8.76-53.55-87.81,4.83-88.78ZM465.07,18.95c-20.19,1.31-34.28,44.37-12.49,50.38,18.01,4.96,30.59-18.37,29.67-33.61-.56-9.28-7.31-17.41-17.18-16.77Z"/>
      <path class="cls-1" d="M176.58,87.85h-20.57c-.32-6.04-1.57-12.08-2.82-18.01-3.59,0-26.32-.95-27.52.12l-10.52,17.89h-22.57L141.72,1.99c1.01-.49,18.18-.58,20.32-.31.61.08,1.32-.03,1.72.56l12.82,85.6ZM150.3,50.77l-3.14-21.11-12.29,21.11h15.43Z"/>
      <polygon class="cls-1" points="39.43 1.71 25.72 69.02 66.86 69.02 62.86 87.85 0 87.85 18.29 1.71 39.43 1.71"/>
      <path class="cls-1" d="M114.29,0c-4.69,5.68-10.58,10.18-16.01,15.11-1.03.94-6.1,6.57-6.56,6.57h-16.86L90.01,0h24.29Z"/>
    </g>
  </g>
</svg>