<?xml version="1.0" encoding="UTF-8"?>
<svg id="Capa_2" data-name="Capa 2" xmlns="http://www.w3.org/2000/svg" viewBox="0 0 21.68 21.66">
  <defs>
    <style>
      .cls-1 {
        fill: gray;
      }
    </style>
  </defs>
  <g id="Capa_2-2" data-name="Capa 2">
    <g id="JlypZK.tif">
      <path class="cls-1" d="M11.45,10.76c-.01.09.12.05.18.05.63.03,1.17.01,1.81.12,4.55.73,8.4,5,8.24,9.69-.02.64-.51,1.02-1.13,1.04H1.18c-.61,0-1.15-.36-1.18-1-.02-.57.09-1.43.2-2,.93-4.64,5.27-8.07,10.02-7.84l-.77-.17c-3.58-.96-5.21-5.15-3.12-8.26,2.13-3.18,6.87-3.18,9,0,2.26,3.37.11,7.99-3.89,8.38Z"/>
    </g>
  </g>
</svg>