<?xml version="1.0" encoding="UTF-8"?>
<svg id="Capa_2" data-name="Capa 2" xmlns="http://www.w3.org/2000/svg" viewBox="0 0 32.96 32.91">
  <defs>
    <style>
      .cls-1 {
        fill: gray;
      }
    </style>
  </defs>
  <g id="Capa_2-2" data-name="Capa 2">
    <g id="lPKLfW.tif">
      <g>
        <path class="cls-1" d="M15.47.03c13.28-.76,22.04,13.75,14.99,25.12-6.16,9.93-20.5,10.43-27.34.95C-4.46,15.59,2.6.77,15.47.03ZM12.04,6.41c-3.27.23-5.42,2.08-5.72,5.41.54,5.48-2.36,14.23,5.83,14.71,5.13-.46,13.67,2.11,14.45-5.37-.54-5.54,2.39-14.33-5.89-14.78-2.56-.14-6.13-.15-8.67.02Z"/>
        <path class="cls-1" d="M16.39,8.25c.17,0,.29.05.44.05,3.02.01,7.11-.73,7.85,3.21,0,2.99.29,6.29.09,9.27-.32,4.61-4.93,3.89-8.32,3.89-1.36,0-2.96.05-4.29-.04-2.39-.15-3.76-1.46-3.98-3.85.15-2.82-.19-5.83,0-8.63.31-4.57,4.85-3.9,8.22-3.9ZM21.59,10.1c-.43.09-.77.53-.8.96-.05.93.91,1.47,1.67.96.97-.65.32-2.17-.87-1.92ZM12.67,12.67c-2.81,2.81-1.63,7.71,2.15,8.9,4.46,1.4,8.45-3.11,6.51-7.36-1.53-3.35-6.05-4.14-8.66-1.53Z"/>
        <path class="cls-1" d="M15.86,13.06c4.3-.58,5.56,5.21,1.88,6.62-2.85,1.09-5.6-1.69-4.46-4.53.41-1.02,1.47-1.94,2.58-2.09Z"/>
      </g>
    </g>
  </g>
</svg>