<?xml version="1.0" encoding="UTF-8"?>
<svg id="Capa_2" data-name="Capa 2" xmlns="http://www.w3.org/2000/svg" viewBox="0 0 45.12 64.18">
  <defs>
    <style>
      .cls-1 {
        fill: #fff;
      }
    </style>
  </defs>
  <g id="Capa_2-2" data-name="Capa 2">
    <g id="x51IET.tif">
      <g>
        <path class="cls-1" d="M21.06.05c7.58-.5,15.01,2.91,19.55,8.94,13.63,18.14-7.01,39.82-16.59,54.54-.78.86-2.08.86-2.87,0C13.6,51.63-.74,36.39.03,21.37.61,10.09,9.8.8,21.06.05ZM35.82,9.2C23.16-3.35,1.87,7.22,3.93,24.99c1.19,10.29,11.99,25.16,18.31,33.44.16.21.23.68.48.39,5.36-8,11.69-15.68,15.67-24.52,3.91-8.67,4.68-17.91-2.57-25.1Z"/>
        <path class="cls-1" d="M21.43,11.33c9.14-.89,15.54,8.94,10.9,16.92s-16.55,7.25-20.13-1.25c-2.93-6.96,1.7-14.94,9.23-15.67ZM21.68,15.08c-9.5,1.07-8.27,15.69,1.47,15s8.68-16.15-1.47-15Z"/>
      </g>
    </g>
  </g>
</svg>