<?xml version="1.0" encoding="UTF-8"?>
<svg id="Capa_2" data-name="Capa 2" xmlns="http://www.w3.org/2000/svg" viewBox="0 0 33.58 33.58">
  <defs>
    <style>
      .cls-1 {
        fill: gray;
      }
    </style>
  </defs>
  <g id="Capa_2-2" data-name="Capa 2">
    <g id="WCfeZp.tif">
      <path class="cls-1" d="M4.87,28.65C-4.04,19.69-.15,4.36,11.89.74c12.85-3.87,24.82,8.1,20.95,20.95-3.64,12.08-19.04,15.95-27.98,6.96ZM26.62,10.05H6.94l8.95,8.99c.17.1,1.26.09,1.52.07.11-.01.21,0,.29-.1l8.91-8.95ZM6.16,23.23l6.16-6.19-6.16-6.14v12.33ZM27.4,23.23v-12.33l-6.16,6.19,6.16,6.14ZM26.09,23.56l-5.62-5.63-.19.05-2.18,2.15c-.28.13-1.82.11-2.22.08-.18-.01-.37-.01-.52-.13-.31-.24-2.05-2.17-2.23-2.17l-5.67,5.64h18.62Z"/>
    </g>
  </g>
</svg>