<?xml version="1.0" encoding="UTF-8"?>
<svg id="Capa_2" data-name="Capa 2" xmlns="http://www.w3.org/2000/svg" viewBox="0 0 42.32 27">
  <g id="Capa_1-2" data-name="Capa 1">
    <g id="zYTmy0.tif">
      <g>
        <path d="M19.9.04c8.14-.56,15.99,5.15,20.96,11.1.66.79,1.76,1.78,1.39,2.87-.2.58-2.06,2.64-2.58,3.21-4.9,5.3-12.07,10.21-19.62,9.76-7.03-.42-14.22-5.9-18.58-11.12-.66-.79-1.76-1.78-1.39-2.87.2-.59,2.09-2.67,2.62-3.25C6.99,5.11,13.42.48,19.9.04ZM19.82,2.85c-2.21.17-4.74,1.13-6.69,2.16-3.81,2.03-7.18,5.15-9.92,8.45-.02.16,1.45,1.77,1.68,2.01,3.55,3.79,9.05,7.91,14.33,8.59,7.05.9,13.71-3.77,18.28-8.67.25-.26,1.51-1.63,1.58-1.83.05-.16-.11-.32-.21-.45-4.25-5.4-11.88-10.83-19.05-10.27Z"/>
        <path d="M20.23,5.17c6.77-.63,11.53,6.36,8.25,12.38-3.11,5.7-11.48,5.74-14.62.05-2.88-5.2.42-11.88,6.37-12.44ZM20.31,7.97c-3.81.43-5.86,4.91-4.05,8.22,2.32,4.23,8.81,3.63,10.22-.98,1.24-4.08-1.99-7.71-6.17-7.24Z"/>
      </g>
    </g>
  </g>
</svg>