<?xml version="1.0" encoding="UTF-8"?>
<svg id="Capa_2" data-name="Capa 2" xmlns="http://www.w3.org/2000/svg" viewBox="0 0 32.81 32.84">
  <defs>
    <style>
      .cls-1 {
        fill: gray;
      }
    </style>
  </defs>
  <g id="Capa_2-2" data-name="Capa 2">
    <g id="xet7Dq.tif">
      <path class="cls-1" d="M4.8.05c1.09-.17,2.2.06,3.06.76.71.58,3.78,4.94,4.25,5.87.75,1.49.55,3.26-.66,4.44-.28.28-2.06,1.34-2.02,1.55.01.08.83,1.16.97,1.34,2.66,3.56,6.21,6.83,9.82,9.39.91-1.11,1.43-2.41,2.89-2.91,1.62-.56,2.61-.03,3.91.82,1.31.86,3.21,2.09,4.38,3.07,3.06,2.57.64,6.65-2.41,7.87-5.16,2.07-12.25-1.68-16.33-4.76C6.6,22.91-.56,14.08.03,6.05.22,3.59,2.2.46,4.8.05Z"/>
    </g>
  </g>
</svg>