<?xml version="1.0" encoding="UTF-8"?>
<svg id="Capa_2" data-name="Capa 2" xmlns="http://www.w3.org/2000/svg" viewBox="0 0 33.73 33.82">
  <defs>
    <style>
      .cls-1 {
        fill: gray;
      }
    </style>
  </defs>
  <g id="Capa_2-2" data-name="Capa 2">
    <g id="P9d2u5.tif">
      <g>
        <path class="cls-1" d="M29.84,6.07c5.8,6.79,5,17.17-1.57,23.14-5.34,4.85-13.17,5.68-19.52,2.33l-8.75,2.29,2.37-8.55C-2.67,16.5,1.07,5.24,10.38,1.33c6.96-2.92,14.62-.92,19.45,4.74ZM26.27,6.38C16.8-1.89,2.29,5.18,2.93,17.69c.13,2.56,1.07,4.9,2.39,7.06l-1.3,5.05c.23,0,.45.02.68-.02,1.53-.28,3.05-.94,4.57-1.26,5.95,3.8,13.41,2.73,18.13-2.46,5.11-5.63,4.58-14.69-1.14-19.68Z"/>
        <path class="cls-1" d="M12.37,9.19c.39.26,1.38,3.45,1.77,4.05-.01.91-1.56,1.79-1.39,2.57.04.21.63,1.03.81,1.27.88,1.21,2.13,2.35,3.42,3.1.33.19,1.64.88,1.92.91.68.08,1.87-2.1,2.06-2.15.17-.05.63-.01.82.03.49.12,2.7,1.24,3.22,1.56.56.34.54.6.44,1.28-.2,1.35-1,2.15-2.22,2.67-2.82,1.21-7.24-1.11-9.43-2.94-2.84-2.38-7.94-8.56-3.95-11.95.57-.48,1.91-.81,2.53-.4Z"/>
      </g>
    </g>
  </g>
</svg>